<?xml version="1.0" standalone="no"?>
<!DOCTYPE svg PUBLIC "-//W3C//DTD SVG 20010904//EN"
 "http://www.w3.org/TR/2001/REC-SVG-20010904/DTD/svg10.dtd">
<svg version="1.0" xmlns="http://www.w3.org/2000/svg"
 width="816.000000pt" height="816.000000pt" viewBox="0 0 816.000000 816.000000"
 preserveAspectRatio="xMidYMid meet">
<metadata>
Created by potrace 1.11, written by Peter Selinger 2001-2013
</metadata>
<g transform="translate(0.000000,816.000000) scale(0.100000,-0.100000)"
fill="#000000" stroke="none">
<path d="M5620 7369 c-41 -11 -95 -29 -120 -40 -30 -13 -54 -18 -75 -13 -107
24 -245 -22 -341 -114 -82 -78 -98 -104 -242 -402 -67 -137 -190 -369 -253
-475 -10 -16 -35 -60 -55 -97 -21 -37 -40 -65 -43 -64 -3 2 -38 7 -78 10 -40
4 -78 8 -85 11 -7 2 -31 6 -53 9 -75 10 -120 17 -165 26 -25 5 -58 12 -75 14
-16 2 -30 5 -30 6 0 1 -16 3 -35 6 -19 2 -46 7 -60 11 -14 4 -32 8 -40 9 -8 1
-26 4 -40 7 -14 3 -35 8 -48 11 -13 3 -33 8 -45 12 -12 4 -31 8 -42 10 -11 1
-56 12 -100 24 -44 12 -87 23 -95 25 -8 2 -53 15 -100 30 -47 14 -93 27 -102
30 -9 2 -26 9 -37 15 -12 6 -21 9 -21 6 0 -2 -30 7 -67 21 -38 14 -79 28 -93
33 -14 4 -68 24 -120 45 -52 20 -122 47 -155 60 -112 42 -442 151 -485 159 -8
1 -34 8 -56 14 -23 7 -64 17 -90 22 -27 6 -58 12 -69 15 -37 9 -70 15 -105 21
-19 3 -42 7 -50 9 -8 2 -28 6 -45 9 -76 11 -122 19 -140 22 -91 17 -504 24
-625 11 -61 -7 -80 -10 -140 -22 -14 -3 -41 -7 -60 -10 -19 -3 -51 -10 -70
-15 -19 -6 -46 -13 -60 -16 -89 -18 -372 -139 -392 -169 -4 -5 -8 -6 -8 -2 0
5 -24 -8 -52 -29 -29 -21 -71 -50 -93 -65 -43 -29 -164 -146 -205 -197 -14
-18 -33 -42 -43 -54 -9 -11 -14 -24 -11 -27 3 -3 16 7 27 23 12 15 67 74 123
130 99 100 171 157 269 211 86 48 100 55 112 55 6 0 13 4 15 9 4 10 213 88
259 96 18 3 36 8 41 11 8 5 39 13 73 19 11 2 34 6 50 8 17 3 53 9 80 13 28 3
59 9 70 12 34 8 467 10 530 2 33 -5 83 -11 110 -14 28 -3 59 -8 70 -10 11 -2
42 -7 68 -10 27 -4 59 -9 70 -12 12 -2 36 -7 52 -10 17 -3 50 -10 75 -15 25
-6 54 -13 65 -15 53 -10 197 -49 295 -79 47 -14 90 -27 95 -28 6 -1 15 -5 20
-8 9 -6 110 -41 128 -45 4 -1 9 -3 12 -4 3 -1 8 -3 13 -5 4 -1 16 -5 27 -10
69 -27 332 -128 340 -130 10 -2 21 -6 80 -28 17 -6 35 -12 40 -13 6 -1 33 -9
60 -19 28 -9 57 -18 65 -20 8 -2 35 -10 60 -18 47 -16 257 -73 300 -81 14 -3
34 -7 45 -10 30 -7 301 -64 332 -69 16 -3 75 -13 133 -22 58 -9 116 -18 130
-20 14 -3 50 -7 80 -11 30 -3 57 -8 59 -10 2 -1 -18 -36 -43 -77 -25 -40 -46
-78 -46 -84 0 -6 12 -13 28 -16 15 -2 54 -12 86 -21 32 -9 61 -15 63 -13 2 2
5 23 8 45 2 23 8 50 13 59 5 10 12 35 16 56 l7 38 47 -4 c45 -4 47 -5 48 -35
0 -17 -5 -70 -11 -117 -13 -92 -11 -98 35 -108 14 -3 81 -21 150 -41 69 -20
136 -38 150 -41 22 -4 56 -11 140 -30 30 -6 88 -17 115 -21 11 -1 22 -3 25 -4
9 -4 25 -7 44 -8 18 -2 18 -10 13 -144 -5 -115 -11 -159 -32 -225 -14 -45 -32
-89 -40 -97 -8 -8 -15 -19 -15 -25 0 -8 -19 -18 -55 -27 -59 -16 -137 -37
-215 -59 -52 -15 -125 -35 -161 -45 -37 -9 -73 -21 -80 -26 -8 -5 -20 -9 -26
-10 -7 -1 -20 -9 -29 -18 -8 -9 -19 -16 -22 -16 -15 0 -91 -82 -108 -118 -10
-20 -19 -64 -21 -97 -1 -33 -5 -118 -8 -190 -13 -334 -27 -600 -31 -606 -2 -4
6 -9 17 -12 12 -3 18 -10 15 -16 -3 -5 -8 -45 -11 -88 -2 -43 -7 -109 -10
-148 -3 -38 -8 -101 -11 -140 -3 -38 -7 -90 -9 -115 -2 -25 -6 -81 -9 -125 -4
-44 -9 -111 -12 -149 -2 -37 -14 -105 -25 -150 -11 -44 -22 -90 -24 -101 -3
-11 -9 -38 -15 -60 -6 -22 -12 -47 -14 -56 -3 -9 -16 -65 -31 -125 -14 -60
-28 -116 -30 -124 -5 -23 -104 -427 -121 -498 -9 -35 -17 -71 -19 -80 -2 -9
-4 -17 -6 -17 -1 0 -3 -9 -5 -20 -1 -11 -10 -49 -19 -85 -10 -36 -19 -74 -21
-85 -2 -11 -8 -38 -14 -60 -6 -22 -12 -47 -14 -55 -44 -174 -67 -243 -84 -254
-4 -2 -33 2 -64 9 -31 7 -59 10 -62 8 -3 -3 -12 0 -21 7 -8 7 -15 10 -15 7 0
-3 -17 -1 -37 5 -21 5 -49 11 -63 13 -14 1 -26 4 -27 5 -2 1 -6 3 -10 4 -5 1
-44 10 -88 21 -44 10 -82 19 -85 20 -3 1 -32 9 -65 18 -140 40 -201 59 -220
67 -21 8 -107 35 -115 35 -6 0 -164 60 -285 108 -44 17 -82 32 -85 33 -5 1
-15 4 -75 27 -16 7 -32 12 -35 13 -3 0 -12 4 -20 7 -8 4 -58 20 -110 37 -52
16 -109 35 -127 41 -18 5 -40 12 -50 14 -10 2 -58 15 -106 29 -48 14 -103 27
-121 30 -18 3 -46 10 -62 16 -16 6 -31 11 -34 10 -6 -1 -89 11 -115 17 -11 3
-29 6 -40 8 -11 1 -38 6 -60 10 -22 4 -51 8 -65 10 -14 1 -54 7 -90 11 -82 10
-505 11 -585 0 -33 -4 -94 -14 -135 -22 -41 -9 -88 -18 -105 -21 -101 -18
-282 -89 -472 -187 -13 -6 -23 -14 -23 -18 0 -5 -5 -8 -12 -8 -9 0 -52 -29
-137 -95 -40 -31 -180 -176 -196 -203 -11 -18 -23 -32 -27 -32 -4 0 -8 -4 -8
-10 0 -22 20 -7 57 42 91 125 252 257 413 340 25 13 47 25 50 28 7 7 162 71
183 75 9 2 22 7 28 10 5 4 25 9 42 12 18 3 39 9 47 13 16 8 193 44 275 55 139
20 461 19 615 0 25 -3 63 -7 85 -10 46 -4 99 -13 135 -21 14 -3 39 -8 55 -10
24 -4 121 -23 145 -29 8 -2 124 -28 135 -31 6 -1 37 -10 70 -20 33 -10 63 -19
68 -20 4 -1 9 -3 12 -4 3 -1 8 -3 13 -4 4 -2 27 -8 52 -15 25 -7 53 -15 62
-16 10 -2 22 -7 28 -10 5 -3 54 -21 107 -40 54 -19 157 -57 228 -85 250 -98
709 -242 810 -254 11 -2 30 -6 42 -10 12 -4 30 -9 40 -11 10 -2 38 -8 63 -14
25 -5 67 -13 95 -17 70 -9 99 -21 88 -37 -24 -31 -108 -291 -119 -367 -27
-191 9 -273 121 -276 56 -2 86 10 131 55 78 77 137 283 148 521 2 33 4 35 36
34 34 -2 100 -9 170 -20 53 -7 96 -12 190 -20 47 -3 99 -8 115 -9 266 -26
1048 -26 1353 -1 31 3 93 8 137 11 44 4 98 9 120 11 22 2 65 7 95 9 101 10
145 15 180 20 19 3 59 7 88 11 29 3 63 7 74 9 12 3 58 9 102 15 45 6 92 13
106 16 14 2 67 11 118 19 129 22 328 60 442 85 52 12 104 23 115 25 11 2 21 4
23 5 3 3 11 5 59 14 24 4 46 12 49 18 8 13 -48 4 -151 -24 -22 -5 -49 -12 -60
-14 -17 -3 -120 -25 -135 -29 -3 -1 -25 -5 -50 -10 -25 -5 -47 -9 -50 -10 -9
-2 -115 -19 -125 -20 -5 -1 -19 -4 -30 -8 -11 -3 -40 -9 -65 -12 -25 -3 -82
-11 -128 -19 -95 -15 -89 -19 -96 69 -3 33 -6 60 -6 60 -3 0 -8 32 -14 92 -4
35 -8 68 -11 75 -2 7 -6 36 -9 63 -3 28 -8 64 -11 80 -3 17 -10 57 -16 90 -31
187 -79 386 -130 539 -31 92 -102 244 -129 275 -8 9 -23 26 -34 38 -10 12 -20
38 -23 58 -5 37 -5 37 19 21 21 -14 27 -14 52 -1 42 22 73 62 100 131 31 76
64 243 66 325 0 14 6 26 13 26 6 1 35 3 62 7 28 3 75 8 105 10 30 3 86 8 123
11 37 4 77 8 87 10 11 2 57 6 102 10 46 3 99 8 118 10 19 3 64 7 100 10 157
13 273 26 290 32 8 2 29 6 45 9 54 7 172 72 204 113 43 55 53 87 47 156 -9
100 -94 247 -244 425 -26 30 -120 129 -209 219 -137 138 -160 166 -147 175 14
10 13 14 -3 32 -10 12 -36 43 -58 69 -22 25 -53 61 -68 78 -16 18 -43 49 -60
71 -18 21 -39 46 -48 55 -9 9 -36 39 -59 66 -23 28 -66 77 -94 110 -99 116
-168 180 -226 207 -65 31 -92 38 -154 44 -59 5 -77 8 -121 17 -11 3 -96 21
-190 41 -160 35 -246 66 -282 102 -8 8 -18 14 -22 14 -20 0 -171 162 -171 183
0 1 10 3 23 4 53 1 148 13 217 28 41 9 86 19 99 21 14 3 29 8 35 12 6 4 13 7
16 7 20 1 103 34 143 57 26 15 51 28 55 28 5 0 17 7 27 15 11 8 39 28 61 44
31 22 41 35 39 53 -9 70 -18 124 -22 131 -7 12 11 8 35 -9 33 -23 58 -77 61
-132 1 -6 16 4 35 24 l35 37 -22 32 c-54 79 -62 90 -74 98 -23 14 -14 37 15
38 15 0 36 2 47 4 11 2 43 7 70 10 28 4 59 8 70 10 11 2 40 6 65 9 25 4 56 9
70 11 14 3 39 7 55 9 17 3 45 8 63 11 17 3 47 7 65 10 17 3 52 10 77 15 25 6
61 12 80 14 19 3 35 5 35 6 0 1 9 3 20 5 11 1 65 12 120 24 55 12 111 24 125
26 14 3 50 12 80 21 30 8 61 16 68 16 11 1 18 18 7 18 -3 0 -60 -13 -128 -29
-152 -36 -186 -43 -217 -47 -14 -1 -25 -3 -25 -4 0 -2 -34 -10 -70 -15 -16 -3
-41 -7 -55 -10 -14 -3 -36 -7 -50 -10 -14 -3 -36 -7 -50 -10 -14 -2 -40 -7
-57 -10 -18 -3 -48 -8 -65 -11 -18 -3 -46 -7 -63 -10 -16 -2 -79 -11 -140 -20
-60 -9 -121 -18 -135 -19 -14 -2 -44 -6 -68 -9 l-42 -7 -113 113 c-86 87 -119
128 -144 179 -38 79 -76 213 -93 324 -14 95 -15 101 -24 140 -11 43 -74 171
-91 185 -8 7 -15 17 -15 22 0 13 -121 127 -142 134 -10 3 -18 9 -18 13 0 12
-131 74 -185 88 -11 3 -63 7 -115 8 -71 3 -114 -1 -170 -16z m-895 -1116 c-4
-27 -8 -61 -9 -78 -1 -27 -5 -30 -31 -29 -71 3 -67 0 -48 42 22 46 71 112 85
112 7 0 8 -17 3 -47z m2270 -1913 c3 0 33 -18 66 -40 33 -22 63 -40 66 -40 3
0 18 -9 34 -21 20 -14 38 -19 53 -15 20 5 33 -4 73 -45 26 -28 101 -106 165
-173 l117 -121 -32 -8 c-18 -4 -39 -9 -47 -12 -227 -66 -409 -117 -425 -119
-11 -2 -32 -8 -46 -14 -15 -6 -30 -8 -33 -5 -3 4 -6 2 -6 -3 0 -5 -8 -10 -17
-11 -15 -1 -98 -24 -297 -81 -17 -5 -18 -1 -11 34 4 21 9 50 12 64 8 48 36
135 65 210 36 91 89 235 129 350 16 47 31 91 34 98 3 9 17 5 49 -17 25 -17 47
-31 51 -31z m-2003 -562 c79 -121 108 -222 81 -280 -8 -16 -15 -28 -16 -28 -1
-1 -20 -3 -42 -6 -22 -3 -44 -9 -48 -14 -15 -14 24 -79 60 -101 l36 -22 -27
-20 c-32 -23 -66 -89 -91 -172 -28 -99 -25 -91 -35 -75 -5 8 -7 17 -4 22 3 4
7 49 9 100 11 215 15 289 21 393 3 61 7 143 8 182 0 40 4 73 7 73 3 0 22 -24
41 -52z m-626 -2277 c-2 -43 -6 -83 -10 -89 -13 -21 -32 -2 -30 31 2 27 34
137 40 137 1 0 1 -35 0 -79z"/>
<path d="M419 5773 c-1 -5 -2 -659 -3 -1455 -1 -967 2 -1449 9 -1451 5 -1 427
-2 938 -2 l927 1 1 -20 c1 -12 1 -25 0 -30 -3 -12 26 -100 47 -146 17 -38 70
-108 111 -146 69 -64 207 -112 311 -108 54 2 133 18 154 32 6 3 16 7 22 8 23
4 94 55 137 98 116 118 159 309 105 464 -57 164 -216 292 -383 307 -22 2 -42
4 -45 4 -3 1 -5 551 -5 1224 l0 1222 -1162 3 c-640 1 -1164 -1 -1164 -5z"/>
</g>
</svg>
